<?xml version="1.0" standalone="no"?>
<!DOCTYPE svg PUBLIC "-//W3C//DTD SVG 20010904//EN"
 "http://www.w3.org/TR/2001/REC-SVG-20010904/DTD/svg10.dtd">
<svg version="1.0" xmlns="http://www.w3.org/2000/svg"
 width="624.000000pt" height="624.000000pt" viewBox="0 0 624.000000 624.000000"
 preserveAspectRatio="xMidYMid meet">
<metadata>
Created by potrace 1.11, written by Peter Selinger 2001-2013
</metadata>
<g transform="translate(0.000000,624.000000) scale(0.100000,-0.100000)"
fill="#000000" stroke="none">
<path d="M4430 5380 c-30 -4 -82 -10 -115 -14 -32 -4 -62 -9 -65 -11 -4 -2
-21 -7 -39 -10 -203 -36 -487 -154 -701 -293 -193 -125 -419 -329 -549 -497
-34 -44 -66 -86 -71 -92 -70 -86 -249 -416 -280 -518 -7 -22 -16 -44 -20 -50
-7 -10 -44 -127 -56 -177 -3 -16 -9 -29 -13 -29 -3 -1 -104 -2 -223 -3 -128
-1 -221 -5 -227 -11 -21 -22 -158 -364 -147 -368 6 -2 128 -3 272 -3 l260 1 0
-190 0 -190 -192 0 -193 1 -74 -176 c-42 -96 -77 -181 -79 -189 -2 -12 44 -14
300 -15 l304 -1 44 -135 c24 -74 48 -144 53 -155 63 -138 140 -287 185 -358
232 -368 547 -655 924 -842 182 -90 438 -173 593 -191 30 -3 73 -10 97 -14 24
-4 129 -6 235 -5 180 2 245 10 446 50 60 12 231 70 324 110 224 95 412 214
600 379 l56 50 0 274 c0 257 -1 273 -17 251 -9 -13 -18 -26 -21 -29 -3 -3 -28
-32 -56 -65 -238 -288 -577 -502 -944 -594 -150 -38 -227 -46 -421 -46 -169 0
-202 3 -388 40 -74 14 -245 76 -357 130 -365 175 -666 474 -849 845 -57 115
-116 262 -116 289 0 16 76 17 1216 16 669 0 1219 2 1224 5 7 5 160 356 160
369 0 3 -603 6 -1340 6 -1332 0 -1340 0 -1347 20 -10 32 -5 347 5 354 6 3 642
6 1414 5 771 -1 1410 0 1419 2 9 3 27 30 41 62 48 106 128 298 128 308 0 5
-561 9 -1457 8 -802 0 -1461 1 -1465 3 -19 9 116 318 199 453 200 324 537 614
858 738 28 10 59 22 70 27 11 4 25 9 30 11 6 1 30 9 55 17 48 17 133 38 212
52 131 24 387 31 508 14 108 -15 134 -19 150 -24 8 -2 26 -6 40 -9 48 -8 176
-45 225 -65 214 -87 387 -193 520 -316 22 -20 51 -47 65 -59 50 -44 168 -177
209 -234 13 -19 27 -30 31 -25 17 17 158 356 154 368 -3 6 -58 64 -123 127
-353 343 -720 528 -1221 613 -54 10 -398 13 -460 5z"/>
<path d="M90 4815 c0 -2 84 -154 186 -337 103 -183 250 -445 327 -583 222
-397 238 -426 280 -500 22 -38 57 -101 78 -140 l38 -70 -53 -95 c-29 -52 -67
-122 -86 -155 -50 -90 -39 -70 -458 -822 -216 -387 -392 -707 -392 -712 0 -5
102 -9 244 -9 l244 0 53 96 c30 53 59 106 66 117 7 11 15 26 19 34 4 8 32 58
62 110 30 53 70 125 90 161 19 36 55 101 80 145 24 44 58 105 75 135 16 30 48
87 70 125 22 39 54 97 72 130 18 33 47 85 64 115 17 30 45 81 62 113 18 31 35
57 38 57 3 0 17 -21 31 -47 14 -27 47 -86 73 -132 26 -46 65 -115 87 -155 21
-39 155 -280 298 -536 l259 -465 247 -2 c135 -1 246 2 246 5 0 4 -34 67 -75
141 -41 74 -75 136 -75 137 0 2 -13 25 -29 52 -16 27 -44 76 -61 108 -107 193
-401 721 -502 902 -150 267 -183 327 -209 377 l-20 41 59 104 c32 58 71 128
87 155 147 265 376 675 410 735 23 41 56 100 73 130 59 109 264 476 284 508
l20 32 -252 -2 -253 -3 -64 -115 c-36 -63 -79 -140 -95 -170 -17 -30 -50 -89
-73 -130 -23 -41 -53 -95 -67 -120 -14 -25 -68 -121 -121 -215 -101 -180 -141
-253 -210 -377 -23 -43 -45 -78 -49 -78 -6 0 -26 33 -88 145 -12 22 -41 74
-65 115 -23 41 -55 100 -72 130 -17 30 -76 136 -132 235 -55 99 -151 271 -213
382 l-113 203 -247 0 c-137 0 -248 -2 -248 -5z"/>
</g>
</svg>
